# xmcd
#
# Track frame offsets:
#	150
#	9654
#	20484
#	35982
#	48039
#	59349
#	75054
#	90599
#	106850
#	123863
#	136095
#	146352
#	159556
#	170688
#	182497
#	193330
#
# Disc length: 2760 seconds
#
# Revision: 1
# Processed by: cddbd v1.5.2PL0 Copyright (c) Steve Scherf et al.
# Submitted via: audiograbber 1.83.01
#
DISCID=c60ac610
DTITLE=Country Ham - The Lost Gospel Album
DYEAR=1990
DGENRE=Gospel
TTITLE0=In the Garden
TTITLE1=We Shall Rise
TTITLE2=Daddy's Making Payments on a Mansion
TTITLE3=Sweeping Thru the Gate
TTITLE4=Goin' Up
TTITLE5=Farther Along
TTITLE6=Send the Light
TTITLE7=Little White Church in the Vale
TTITLE8=Where the Sould of Man Never Dies
TTITLE9=Don't Be Ashamed of Jesus
TTITLE10=I Like the Old Time Way
TTITLE11=Leaning on the Everlasting Arms
TTITLE12=Sweet Hour of Prayer/Bells of St. Mary's
TTITLE13=What Will I leave Behind
TTITLE14=Over in the Glory Land
TTITLE15=In the Garden (a cappella)
EXTD=
EXTT0=
EXTT1=
EXTT2=
EXTT3=
EXTT4=
EXTT5=
EXTT6=
EXTT7=
EXTT8=
EXTT9=
EXTT10=
EXTT11=
EXTT12=
EXTT13=
EXTT14=
EXTT15=
PLAYORDER=
